<?xml version="1.0" encoding="utf-8"?>
<!-- Generator: Adobe Illustrator 24.0.1, SVG Export Plug-In . SVG Version: 6.00 Build 0)  -->
<svg version="1.1" id="Layer_1" xmlns="http://www.w3.org/2000/svg" xmlns:xlink="http://www.w3.org/1999/xlink" x="0px" y="0px"
	 viewBox="0 0 1493.5 78.9" style="enable-background:new 0 0 1493.5 78.9;" xml:space="preserve">
<style type="text/css">
	.st0{fill:#FFFFFF;}
	.st1{opacity:0.2;fill:#FFFFFF;enable-background:new    ;}
	.st2{opacity:0.8;fill:#FFFFFF;enable-background:new    ;}
</style>
<path class="st0" d="M-7.8,13.6L1505,19.5l0.1,27.3C564.5-11-7.8,53.6-7.8,53.6L-7.8,13.6z"/>
<path class="st1" d="M-7.7,74c0,0,178.6-45.8,408.6-21.9s550.5-13.4,680.8-4.1c277.3,20,423.4,13.4,423.4,13.4V24.1H-7.7V74z"/>
<path class="st2" d="M1505.1,50.1c0,0-183.2,18.7-408.6-0.6C866.2,29.7,546,34,415.7,44.9C138.3,68.1-7.7,69.3-7.7,69.3V16.8h1512.8
	V50.1z"/>
<rect x="-12.9" y="0" class="st0" width="1518.3" height="22.8"/>
</svg>
